# xmcd CD database file
# Copyright (C) 1993-1998 Ti Kan
# 
# Track frame offsets:
#     150
#     16422
#     39480
#     60412
#     92112
#     115047
#     143465
#     175847
#     196225
#     227927
#     243087
#     258365
#     293907
#     316867
# 
# Disc length: 4597 seconds
# 
# Revision: 1
# Processed by: cddbd v1.4b41PL1 Copyright (c) Steve Scherf et al.
# Submitted via: DiscPlay 4.0.4
# 
DISCID=b211f30e
DTITLE=Margie Evans - Drowning In The Sea Of Love
DYEAR=1900
DGENRE=
TTITLE0=Drowning In the Sea of Love
TTITLE1=Don't You Worry
TTITLE2=Another Blues Day
TTITLE3=Trouble Trouble
TTITLE4=Giving Up the Streets for Love
TTITLE5=Good Thing Queen
TTITLE6=In His Eyes
TTITLE7=Let the Telephone Ring
TTITLE8=It's a Shame
TTITLE9=I Can't Get You Off My Mind
TTITLE10=Evil Gal Blues
TTITLE11=Just a Closer Walk with Thee
TTITLE12=Women I Wonder Why
TTITLE13=Mistreated Woman
EXTD=
EXTT0=
EXTT1=
EXTT2=
EXTT3=
EXTT4=
EXTT5=
EXTT6=
EXTT7=
EXTT8=
EXTT9=
EXTT10=
EXTT11=
EXTT12=
EXTT13=
PLAYORDER=
